# SmartMirror - T-Shirt OBJ Model
# Simplified T-shirt in T-Pose (meters), facing +Z
# Generated for garment simulation

# --- Body (torso cylinder) ---
# Ring 0: neck base (y=-0.1)
v -0.12 0.05 0.10
v 0.12 0.05 0.10
v 0.12 0.05 -0.10
v -0.12 0.05 -0.10

# Ring 1: shoulders (y=0.0)
v -0.15 0.10 0.12
v 0.15 0.10 0.12
v 0.15 0.10 -0.12
v -0.15 0.10 -0.12

# Ring 2: chest (y=0.08)
v -0.15 0.18 0.13
v 0.15 0.18 0.13
v 0.15 0.18 -0.13
v -0.15 0.18 -0.13

# Ring 3: mid torso (y=0.15)
v -0.15 0.25 0.12
v 0.15 0.25 0.12
v 0.15 0.25 -0.12
v -0.15 0.25 -0.12

# Ring 4: waist (y=0.22)
v -0.14 0.32 0.11
v 0.14 0.32 0.11
v 0.14 0.32 -0.11
v -0.14 0.32 -0.11

# Ring 5: hip (y=0.28)
v -0.13 0.39 0.10
v 0.13 0.39 0.10
v 0.13 0.39 -0.10
v -0.13 0.39 -0.10

# Ring 6: bottom hem (y=0.35)
v -0.13 0.46 0.10
v 0.13 0.46 0.10
v 0.13 0.46 -0.10
v -0.13 0.46 -0.10

# --- Left sleeve ---
# Shoulder attachment (y=0.10, x=-0.15)
# Ring L0: shoulder (x=-0.15 to -0.25)
v -0.25 0.08 0.08
v -0.25 0.08 -0.08
v -0.25 0.13 0.08
v -0.25 0.13 -0.08

# Ring L1: upper arm (x=-0.25 to -0.40)
v -0.40 0.10 0.07
v -0.40 0.10 -0.07
v -0.40 0.16 0.07
v -0.40 0.16 -0.07

# Ring L2: elbow (x=-0.45)
v -0.50 0.12 0.06
v -0.50 0.12 -0.06
v -0.50 0.18 0.06
v -0.50 0.18 -0.06

# Ring L3: cuff (x=-0.55)
v -0.55 0.14 0.05
v -0.55 0.14 -0.05
v -0.55 0.20 0.05
v -0.55 0.20 -0.05

# --- Right sleeve ---
# Ring R0: shoulder (x=0.15 to 0.25)
v 0.25 0.08 0.08
v 0.25 0.08 -0.08
v 0.25 0.13 0.08
v 0.25 0.13 -0.08

# Ring R1: upper arm (x=0.25 to 0.40)
v 0.40 0.10 0.07
v 0.40 0.10 -0.07
v 0.40 0.16 0.07
v 0.40 0.16 -0.07

# Ring R2: elbow (x=0.45)
v 0.50 0.12 0.06
v 0.50 0.12 -0.06
v 0.50 0.18 0.06
v 0.50 0.18 -0.06

# Ring R3: cuff (x=0.55)
v 0.55 0.14 0.05
v 0.55 0.14 -0.05
v 0.55 0.20 0.05
v 0.55 0.20 -0.05

# --- Normals (approximate per-vertex) ---
vn 0.00 0.00 1.00
vn 0.00 0.00 -1.00
vn 1.00 0.00 0.00
vn -1.00 0.00 0.00
vn 0.00 1.00 0.00
vn 0.00 -1.00 0.00
vn 0.70 0.70 0.00
vn -0.70 0.70 0.00
vn 0.70 0.00 0.70
vn -0.70 0.00 -0.70
vn 0.50 0.00 0.86
vn -0.50 0.00 -0.86

# --- Faces: Body cylinder (4-sided rings) ---
# Body: ring 0-1 (neck to shoulder)
f 1 5 6
f 1 6 2
f 2 6 7
f 2 7 3
f 3 7 8
f 3 8 4
f 4 8 5
f 4 5 1

# Body: ring 1-2 (shoulder to chest)
f 5 9 10
f 5 10 6
f 6 10 11
f 6 11 7
f 7 11 12
f 7 12 8
f 8 12 9
f 8 9 5

# Body: ring 2-3 (chest to mid)
f 9 13 14
f 9 14 10
f 10 14 15
f 10 15 11
f 11 15 16
f 11 16 12
f 12 16 13
f 12 13 9

# Body: ring 3-4 (mid to waist)
f 13 17 18
f 13 18 14
f 14 18 19
f 14 19 15
f 15 19 20
f 15 20 16
f 16 20 17
f 16 17 13

# Body: ring 4-5 (waist to hip)
f 17 21 22
f 17 22 18
f 18 22 23
f 18 23 19
f 19 23 24
f 19 24 20
f 20 24 21
f 20 21 17

# Body: ring 5-6 (hip to bottom)
f 21 25 26
f 21 26 22
f 22 26 27
f 22 27 23
f 23 27 28
f 23 28 24
f 24 28 25
f 24 25 21

# Left sleeve: each ring has 4 vertices (top-front, bot-front, bot-back, top-back)
# Ring L0 -> L1
f 29 30 34
f 29 34 33
f 30 31 35
f 30 35 34
f 31 32 36
f 31 36 35
f 32 29 33
f 32 33 36

# Ring L1 -> L2
f 33 34 38
f 33 38 37
f 34 35 39
f 34 39 38
f 35 36 40
f 35 40 39
f 36 33 37
f 36 37 40

# Ring L2 -> L3
f 37 38 42
f 37 42 41
f 38 39 43
f 38 43 42
f 39 40 44
f 39 44 43
f 40 37 41
f 40 41 44

# Right sleeve: Ring R0 -> R1
f 45 46 50
f 45 50 49
f 46 47 51
f 46 51 50
f 47 48 52
f 47 52 51
f 48 45 49
f 48 49 52

# Ring R1 -> R2
f 49 50 54
f 49 54 53
f 50 51 55
f 50 55 54
f 51 52 56
f 51 56 55
f 52 49 53
f 52 53 56

# Ring R2 -> R3
f 53 54 58
f 53 58 57
f 54 55 59
f 54 59 58
f 55 56 60
f 55 60 59
f 56 53 57
f 56 57 60

# Left sleeve attachment to body
f 5 6 30
f 5 30 29
f 8 5 29
f 8 29 32
f 6 7 31
f 6 31 30
f 7 8 32
f 7 32 31

# Right sleeve attachment to body
f 6 46 45
f 6 5 46
f 5 45 48
f 5 8 48
f 7 47 46
f 7 6 46
f 8 47 7
f 8 48 47
